<svg version="1.1" width="1em" height="1em" xmlns="http://www.w3.org/2000/svg" viewBox="0 0 100 100"><path fill="currentColor" d="M86.88 92.01H13.05a8.12 8.12 0 01-8.12-8.12V30.03a8.12 8.12 0 018.12-8.12h73.84a8.12 8.12 0 018.12 8.12v53.86c-.01 4.48-3.64 8.12-8.13 8.12z"/><path class="st0" d="M46.74 42.91a2.647 2.647 0 01-.5-3.71l22.2-29.16a2.647 2.647 0 114.21 3.21L50.45 42.4a2.646 2.646 0 01-3.71.51z"/><path class="st0" d="M49.03 45.67c-1.27.73-2.88.3-3.62-.97L27.09 12.97a2.65 2.65 0 014.59-2.65L50 42.06c.73 1.26.29 2.88-.97 3.61z"/><path d="M42.32 42.58c.86-.86 2.24-.88 3.08-.04l18.58 14.78c.84.84.82 2.22-.04 3.08L45.01 75.55c-.86.86-2.24.88-3.08.04" fill="#fff"/></svg>