<svg width="1em" height="1em" viewBox="0 0 1024 1024" xmlns="http://www.w3.org/2000/svg"><path d="M512 819.1c-28.4 0-51.5 23.1-51.5 51.5s23.1 51.5 51.5 51.5 51.5-23.1 51.5-51.5-23.1-51.5-51.5-51.5z" fill="currentColor"/><path d="M822.8 28.5c-15-15-35-23.3-56.2-23.3H257.4c-43.8 0-79.5 35.7-79.5 79.5v854.6c0 43.8 35.7 79.5 79.5 79.5h509.2c43.8 0 79.5-35.7 79.5-79.5V84.7c0-21.2-8.2-41.2-23.3-56.2zM233.3 783h557.4v156.3c0 6.4-2.5 12.5-7.1 17-4.6 4.6-10.6 7.1-17 7.1H257.4c-13.3 0-24.1-10.8-24.1-24.1V783zm24.1-722.4h509.2c13.3 0 24.1 10.8 24.1 24.1v638.5H233.3V84.7c0-13.3 10.8-24.1 24.1-24.1z" fill="currentColor"/></svg>
