<svg width="1em" height="1em" xmlns="http://www.w3.org/2000/svg" viewBox="0 0 200 200"><path fill="currentColor" d="M18.09 62.82h26.23v63.08c0 5.56-2.83 7.59-7.06 7.59H18.09V62.82zm15.01 6.71h-3.8v57.25h2.3c1.06 0 1.5-.62 1.5-1.68V69.53zm12.54-11.51l.56 18.16h11.13l-.47-18.16H45.64zm.17 79.8l2.56-31.61 11.13.09-2.47 31.52H45.81zm.36-57.84l1.56 22.16 11.13.09-1.56-22.25H46.17zm33.02-25.87l-1.15 5.74h23.58v6.71H76.63l-1.24 6.45h23.58v28.43h2.65v6.71h-2.65v20.93c0 4.59-3.8 8.39-8.39 8.39H63.47v-29.32h-2.83v-6.71h2.83V78.39H60.2l4.94-24.28h14.05zm-3.35 47.33h10.77V79.72H75.84v21.72zm10.77 6.71H75.84v22.61h8.3c1.32 0 2.47-1.15 2.47-2.47v-20.14zm-1.94-23.63v13.49h-6.89V84.52h6.89zm0 28.1v13.46h-6.89v-13.46h6.89zM105.94 81.11h40.35v6.71h-19.16l-3.44 42.56h3.27c1.41 0 2.56-1.15 2.47-2.47l-2.03-27.82h15.89l2.03 28.61c.35 4.59-3.62 8.39-8.21 8.39h-30.55l3.88-49.27h-4.5v-6.71zm1.77-23.84h36.82v6.71h-36.82v-6.71zm64.37 14.75h-4.71l-3.44 65.08h-16.75l3.44-65.08h-3.53v-6.27h3.88l.71-10.3h16.75l-.71 10.3h19.93v62.96c0 4.59-3.8 8.39-8.39 8.39h-11.6v-6.27h1.85c1.41 0 2.56-1.15 2.56-2.56V72.02z"/></svg>
