<svg width="1em" height="1em" x="0" y="0" viewBox="0 0 200 200" xmlns="http://www.w3.org/2000/svg"><path fill="currentColor" d="M65.15 116.07c8.01-4.06 15.68-8.08 23.45-11.87 22.8-11.12 46.12-20.96 70.74-27.4 10.38-2.71 20.87-4.74 31.64-5 2.03-.05 2.78.19 2.4 2.68-4.36 28.63-8.57 57.27-12.8 85.92-1.81 12.22-3.61 24.44-5.33 36.68-.25 1.79-.8 2.45-2.75 2.42-14.26-.25-28.52-.41-42.78-.47-2.1-.01-2.48-.66-2.19-2.56 2.17-14.23 4.28-28.48 6.4-42.72 1.13-7.55 2.21-15.1 3.38-22.65.24-1.58-.17-1.67-1.57-1.27-12.77 3.59-24.99 8.58-36.88 14.39-13.89 6.78-27.17 14.6-39.95 23.3-1.2.81-1.78 1.69-2 3.18-1.26 8.88-2.72 17.73-4 26.61-.21 1.44-.71 1.78-2.07 1.78-14.5-.04-29-.04-43.5 0-1.41 0-1.84-.21-1.6-1.83 4.87-32.61 9.65-65.23 14.48-97.84 4.66-31.45 9.37-62.88 13.99-94.34.23-1.54.7-1.97 2.19-1.85 8.12.66 16.09 1.97 23.63 5.23 14.01 6.07 19.13 15.71 16.77 30.78-3.4 21.77-6.6 43.57-9.89 65.35-.55 3.73-1.13 7.45-1.76 11.48z"/><path class="st0" d="M145.95 67.97c2.33-15.6 4.6-30.76 6.85-45.92.74-4.98 1.52-9.95 2.16-14.94.23-1.76.79-2.5 2.75-2.51 8.88-.04 17.65.56 25.86 4.32 9.56 4.38 15.2 11.71 15.24 22.43.02 5.08-1 10.16-2.81 15-2.23 5.96-6.57 9.62-12.43 11.75-4.61 1.68-9.38 2.59-14.19 3.45-7.9 1.41-15.7 3.25-23.43 6.42z"/></svg>
