<svg width="1em" height="1em" viewBox="0 0 1024 1024" xmlns="http://www.w3.org/2000/svg"><defs><style/></defs><path d="M511.926 1023.975C357.959 1023.975 71.5 794.5 71.5 577.448V163.162c0-10.05 8.416-18.169 18.838-18.38l24.951-.42c.953 0 98.766-1.968 199.6-41.895 103.481-40.843 170.18-87.937 170.885-88.42l14.69-10.42a19.865 19.865 0 0111.4-3.602 19.481 19.481 0 0111.325 3.54l14.975 10.507c.681.483 67.441 47.527 170.8 88.42 100.931 39.927 198.744 41.895 199.747 41.895l24.753.42c10.434.211 18.825 8.33 18.825 18.38l.21 414.286C952.5 794.499 665.992 1024 511.89 1024zm372.626-812.568c-37.86-2.847-117.517-12.625-200.268-45.386-84.558-33.417-146.726-71.005-172.358-87.602-25.558 16.535-87.764 54.136-172.297 87.602-82.602 32.687-162.035 42.465-200.416 45.386v366.041c0 170.217 249.577 378.282 372.713 378.282 47.724 0 140.723-38.727 232.137-123.767 88.123-81.91 140.724-177.074 140.724-254.49zm-407.95 435.66a33.306 33.306 0 01-23.899 10.05 33.739 33.739 0 01-23.998-10.038L327.03 544.75a34.345 34.345 0 010-48.27 33.665 33.665 0 0147.935 0l77.738 78.184 196.27-197.693a33.59 33.59 0 0147.91 0 34.184 34.184 0 010 48.27zm0 0" fill="currentColor"/></svg>
